ply
format ascii 1.0
element vertex 36
property float x
property float y
property float z
property float u
property float v
property float nx
property float ny
property float nz
element face 22
property list uchar int vertex_indices
end_header
-566.998 286.997 171.983 -1.42445 0.000340998 0.666667 0.666667 0.333333
-578.353 286.997 171.983 -1.45267 0.000340998 -0.666667 0.666667 0.333333
-578.353 0.212302 171.983 -1.45267 0.999592 -0.666667 -0.666667 0.333333
-566.998 0.212302 171.983 -1.42445 0.999592 0.666667 -0.666667 0.333333
-566.998 0.212302 171.983 5.1e-05 0.999592 0.666667 -0.666667 0.333333
-566.998 0.212302 -230.335 0.999848 0.999592 0.57735 -0.57735 -0.57735
-566.998 286.997 -230.335 0.999848 0.000340998 0.57735 0.57735 -0.57735
-566.998 286.997 171.983 5.1e-05 0.000340998 0.666667 0.666667 0.333333
-566.998 0.212302 -230.335 1.39363 0.999592 0.57735 -0.57735 -0.57735
-578.353 0.212302 -230.335 1.42185 0.999592 -0.57735 -0.57735 -0.57735
-578.353 286.997 -230.335 1.42185 0.000340998 -0.57735 0.57735 -0.57735
-566.998 286.997 -230.335 1.39363 0.000340998 0.57735 0.57735 -0.57735
-578.353 0.212302 184.383 -5.1e-05 0.999592 -0.57735 -0.57735 0.57735
-578.353 286.997 184.383 -5.1e-05 0.000340998 -0.57735 0.57735 0.57735
-578.353 286.997 171.983 -0.030866 0.000340998 -0.666667 0.666667 0.333333
-578.353 0.212302 171.983 -0.030866 0.999592 -0.666667 -0.666667 0.333333
-578.353 0.212302 171.983 -1.45267 0.519932 -0.666667 -0.666667 0.333333
-578.353 0.212302 -230.335 -1.45267 1.92174 -0.57735 -0.57735 -0.57735
-566.998 0.212302 -230.335 -1.42445 1.92174 0.57735 -0.57735 -0.57735
-566.998 0.212302 171.983 -1.42445 0.519932 0.666667 -0.666667 0.333333
-566.998 0.212302 184.383 -1.42445 0.476727 0.57735 -0.57735 0.57735
-578.353 0.212302 184.383 -1.45267 0.476727 -0.57735 -0.57735 0.57735
-566.998 286.997 184.383 -1.42445 0.000340998 0.57735 0.57735 0.57735
-578.353 286.997 184.383 -1.45267 0.000340998 -0.57735 0.57735 0.57735
-578.353 0.212302 184.383 -1.45267 0.999592 -0.57735 -0.57735 0.57735
-566.998 0.212302 184.383 -1.42445 0.999592 0.57735 -0.57735 0.57735
-578.353 286.997 -230.335 -1.03066 0.000340998 -0.57735 0.57735 -0.57735
-578.353 0.212302 -230.335 -1.03066 0.999592 -0.57735 -0.57735 -0.57735
-566.998 286.997 171.983 -1.42445 0.476583 0.666667 0.666667 0.333333
-578.353 286.997 171.983 -1.45267 0.476583 -0.666667 0.666667 0.333333
-578.353 286.997 184.383 -1.45267 0.519789 -0.57735 0.57735 0.57735
-566.998 286.997 184.383 -1.42445 0.519789 0.57735 0.57735 0.57735
-566.998 286.997 -230.335 -1.42445 -0.925222 0.57735 0.57735 -0.57735
-578.353 286.997 -230.335 -1.45267 -0.925222 -0.57735 0.57735 -0.57735
-566.998 286.997 184.383 -0.030764 0.000340998 0.57735 0.57735 0.57735
-566.998 0.212302 184.383 -0.030764 0.999592 0.57735 -0.57735 0.57735
3 0 1 2
3 0 2 3
3 4 5 6
3 4 6 7
3 7 35 4
3 7 34 35
3 8 9 10
3 8 10 11
3 12 13 14
3 12 14 15
3 14 26 27
3 14 27 15
3 16 17 18
3 16 18 19
3 19 21 16
3 19 20 21
3 22 23 24
3 22 24 25
3 28 29 30
3 28 30 31
3 28 32 33
3 28 33 29
