ply
format ascii 1.0
element vertex 24
property float x
property float y
property float z
property float u
property float v
property float nx
property float ny
property float nz
element face 12
property list uchar int vertex_indices
end_header
-566.998 0.212302 184.383 0.001235 0.999592 -0.57735 -0.57735 0.57735
568.223 0.212302 184.383 1.00108 0.999592 0.57735 -0.57735 0.57735
568.223 286.997 184.383 1.00108 0.000340998 0.57735 0.57735 0.57735
-566.998 286.997 184.383 0.001235 0.000340998 -0.57735 0.57735 0.57735
568.223 0.212302 171.983 0.506095 0.999592 0.57735 -0.57735 -0.57735
568.223 286.997 171.983 0.506095 0.000340998 0.57735 0.57735 -0.57735
568.223 286.997 184.383 0.495174 0.000340998 0.57735 0.57735 0.57735
568.223 0.212302 184.383 0.495174 0.999592 0.57735 -0.57735 0.57735
-566.998 286.997 171.983 0.999998 0.000340998 -0.57735 0.57735 -0.57735
568.223 286.997 171.983 0.000156 0.000340998 0.57735 0.57735 -0.57735
568.223 0.212302 171.983 0.000156 0.999592 0.57735 -0.57735 -0.57735
-566.998 0.212302 171.983 0.999998 0.999592 -0.57735 -0.57735 -0.57735
-566.998 0.212302 171.983 0.001235 0.519932 -0.57735 -0.57735 -0.57735
568.223 0.212302 171.983 1.00108 0.519932 0.57735 -0.57735 -0.57735
568.223 0.212302 184.383 1.00108 0.476727 0.57735 -0.57735 0.57735
-566.998 0.212302 184.383 0.001235 0.476727 -0.57735 -0.57735 0.57735
-566.998 286.997 184.383 0.001235 0.519789 -0.57735 0.57735 0.57735
568.223 286.997 184.383 1.00108 0.519789 0.57735 0.57735 0.57735
568.223 286.997 171.983 1.00108 0.476583 0.57735 0.57735 -0.57735
-566.998 286.997 171.983 0.001235 0.476583 -0.57735 0.57735 -0.57735
-566.998 286.997 184.383 0.506059 0.000340998 -0.57735 0.57735 0.57735
-566.998 286.997 171.983 0.495138 0.000340998 -0.57735 0.57735 -0.57735
-566.998 0.212302 171.983 0.495138 0.999592 -0.57735 -0.57735 -0.57735
-566.998 0.212302 184.383 0.506059 0.999592 -0.57735 -0.57735 0.57735
3 0 1 2
3 0 2 3
3 4 5 6
3 4 6 7
3 8 9 10
3 8 10 11
3 12 13 14
3 12 14 15
3 16 17 18
3 16 18 19
3 20 21 22
3 20 22 23
